# WaveFront *.obj file (generated by Autodesk ATF)

mtllib 02a79e94-a241-4654-977a-3ba74cb2b98b.mtl

g Body1

v 0.000000 0.000000 1.000000
v 4.000000 0.000000 1.000000
v 4.000000 12.000000 1.000000
v 0.000000 12.000000 1.000000
v 0.000000 0.000000 0.000000
v 0.000000 12.000000 0.000000
v 4.000000 0.000000 0.000000
v 4.000000 12.000000 0.000000
vt 0.000000 0.000000 0.000000
vt 10.160000 0.000000 0.000000
vt 0.000000 30.480000 0.000000
vt 10.160000 30.480000 0.000000
vt 0.000000 0.000000 0.000000
vt 2.540000 0.000000 0.000000
vt 0.000000 30.480000 0.000000
vt 2.540000 30.480000 0.000000
vt -0.000000 0.000000 0.000000
vt 10.160000 0.000000 0.000000
vt -0.000000 30.480000 0.000000
vt 10.160000 30.480000 0.000000
vt -1.270000 0.000000 0.000000
vt 1.270000 0.000000 0.000000
vt -1.270000 30.480000 0.000000
vt 1.270000 30.480000 0.000000
vt 1.905000 5.080000 0.000000
vt -0.635000 5.080000 0.000000
vt 1.905000 -5.080000 0.000000
vt -0.635000 -5.080000 0.000000
vt 5.080000 0.635000 0.000000
vt -5.080000 0.635000 0.000000
vt 5.080000 -1.905000 0.000000
vt -5.080000 -1.905000 0.000000
vn 0.000000 0.000000 2.540000
vn 0.000000 0.000000 2.540000
vn 0.000000 0.000000 2.540000
vn 0.000000 0.000000 2.540000
vn -2.540000 0.000000 0.000000
vn -2.540000 0.000000 0.000000
vn -2.540000 0.000000 0.000000
vn -2.540000 0.000000 0.000000
vn 0.000000 0.000000 -2.540000
vn 0.000000 0.000000 -2.540000
vn 0.000000 0.000000 -2.540000
vn 0.000000 0.000000 -2.540000
vn 2.540000 0.000000 0.000000
vn 2.540000 0.000000 0.000000
vn 2.540000 0.000000 0.000000
vn 2.540000 0.000000 0.000000
vn 0.000000 2.540000 0.000000
vn 0.000000 2.540000 0.000000
vn 0.000000 2.540000 0.000000
vn 0.000000 2.540000 0.000000
vn 0.000000 -2.540000 0.000000
vn 0.000000 -2.540000 0.000000
vn 0.000000 -2.540000 0.000000
vn 0.000000 -2.540000 0.000000
usemtl Steel_-_Satin
f 1/1/1 2/2/2 4/3/3
f 4/3/3 2/2/2 3/4/4
f 5/5/5 1/6/6 6/7/7
f 6/7/7 1/6/6 4/8/8
f 7/9/9 5/10/10 8/11/11
f 8/11/11 5/10/10 6/12/12
f 2/13/13 7/14/14 3/15/15
f 3/15/15 7/14/14 8/16/16
f 3/17/17 8/18/18 4/19/19
f 4/19/19 8/18/18 6/20/20
f 5/21/21 7/22/22 1/23/23
f 1/23/23 7/22/22 2/24/24
# 8 vertices
# 24 texture params
# 24 normals
# 12 facets

# 1 groups
