####
#
# OBJ File Generated by Meshlab
#
####
# Object Test Wall 1.obj
#
# Vertices: 16
# Faces: 24
#
####
vn 1.5707964 -1.5707966 -1.5707963
v 127.0000076 0.1970530 89.3695374
vn 1.5707960 1.5707964 -1.5707964
v 127.0000076 292.2970581 89.3695374
vn 1.5707960 -1.5707964 1.5707964
v 127.0000076 0.1970530 114.7695312
vn 1.5707964 1.5707966 1.5707963
v 127.0000076 292.2970581 114.7695312
vn -1.5707960 -1.5707964 -1.5707964
v 0.0000000 0.1970530 89.3695374
vn -1.5707964 -1.5707966 1.5707963
v 0.0000000 0.1970530 114.7695312
vn -1.5707964 1.5707966 -1.5707963
v 0.0000000 292.2970581 89.3695374
vn -1.5707960 1.5707964 1.5707964
v 0.0000000 292.2970581 114.7695312
vn 1.5707964 1.5707964 -1.5707964
v 120.6473770 107.9499969 0.0000000
vn -1.5707964 1.5707963 -1.5707964
v 6.3473730 107.9499969 0.0000000
vn 1.5707964 1.5707963 1.5707964
v 120.6473770 107.9499969 88.9000015
vn -1.5707964 1.5707964 1.5707964
v 6.3473730 107.9499969 88.9000015
vn 1.5707964 -1.5707963 -1.5707964
v 120.6473770 0.0000000 0.0000000
vn 1.5707964 -1.5707964 1.5707964
v 120.6473770 0.0000000 88.9000015
vn -1.5707964 -1.5707964 -1.5707964
v 6.3473730 0.0000000 0.0000000
vn -1.5707964 -1.5707963 1.5707964
v 6.3473730 0.0000000 88.9000015
# 16 vertices, 0 vertices normals

f 1//1 2//2 3//3
f 3//3 2//2 4//4
f 5//5 1//1 6//6
f 6//6 1//1 3//3
f 7//7 5//5 8//8
f 8//8 5//5 6//6
f 2//2 7//7 4//4
f 4//4 7//7 8//8
f 5//5 7//7 1//1
f 1//1 7//7 2//2
f 8//8 6//6 4//4
f 4//4 6//6 3//3
f 9//9 10//10 11//11
f 11//11 10//10 12//12
f 13//13 9//9 14//14
f 14//14 9//9 11//11
f 15//15 13//13 16//16
f 16//16 13//13 14//14
f 10//10 15//15 12//12
f 12//12 15//15 16//16
f 13//13 15//15 9//9
f 9//9 15//15 10//10
f 16//16 14//14 12//12
f 12//12 14//14 11//11
# 24 faces, 0 coords texture

# End of File
